<?xml version="1.0" encoding="utf-8"?>
<!-- Generator: Adobe Illustrator 21.1.0, SVG Export Plug-In . SVG Version: 6.00 Build 0)  -->
<svg version="1.1" id="レイヤー_1" xmlns="http://www.w3.org/2000/svg" xmlns:xlink="http://www.w3.org/1999/xlink" x="0px"
	 y="0px" viewBox="0 0 1815.1 368.5" style="enable-background:new 0 0 1815.1 368.5;" xml:space="preserve">
<style type="text/css">
	.st0{fill:#FFFFFF;}
</style>
<g>
	<g>
		<polygon class="st0" points="283.5,0 184.3,0 184.3,184.3 113.4,184.3 121.9,283.5 283.5,283.5 		"/>
		<polygon class="st0" points="161.6,0 0,0 0,368.5 99.2,368.5 99.2,99.2 170.1,99.2 		"/>
	</g>
	<g>
		<path class="st0" d="M1483.9,43.9c-54.5,0-98.7,43.8-98.7,97.8c0,54,44.2,97.8,98.7,97.8c54.5,0,98.7-43.8,98.7-97.8
			C1582.7,87.7,1538.5,43.9,1483.9,43.9z M1483.9,208.8c-35.5,0-64.3-30-64.3-67.1c0-37.1,28.8-67.1,64.3-67.1
			c35.5,0,64.3,30,64.3,67.1C1548.2,178.8,1519.4,208.8,1483.9,208.8z"/>
		<polygon class="st0" points="682.2,155.9 776.7,155.9 776.7,125.7 682.2,125.7 682.2,77.3 788,77.3 788,47.2 648.2,47.2 
			648.2,236.2 789.9,236.2 789.9,206.2 682.2,206.2 		"/>
		<polygon class="st0" points="1716.9,206 1716.9,47.2 1682.8,47.2 1682.8,236.2 1815.1,236.2 1815.1,206 		"/>
		<path class="st0" d="M480.9,47.2h-74.6v189h34v-60.5h40.6c41.1,0,70.9-28.8,70.9-64.3S530.1,47.2,480.9,47.2z M478.1,145.5
			L478.1,145.5l-37.8,0v-68h37.8c28,0,40.6,15.2,40.6,34C518.7,130.3,504.1,145.5,478.1,145.5z"/>
		<path class="st0" d="M1052.6,111.5c0-35.5-21.7-64.3-70.9-64.3h-74.6v189h34v-60.5h37l42.3,60.5h39.7l-46.8-66.8
			C1037.3,159,1052.6,137,1052.6,111.5z M978.9,145.5L978.9,145.5l-37.8,0v-68h37.8c28,0,40.6,15.2,40.6,34
			C1019.5,130.3,1004.9,145.5,978.9,145.5z"/>
		<path class="st0" d="M1274.7,140.1c-12-7.7-26.6-11.7-44.3-16.2c-32.2-8.1-37.4-13.9-37.4-24.7c0-16.3,15.9-23.6,31.6-23.6
			c22.8,0,42.1,11,51.7,17.5c7.2,4.9,12.6,9.8,16.4,13.9V65.4c-14.4-9.5-38.7-21.9-68-21.9c-36.9,0-63.7,23.4-63.7,55.7
			c0,40.3,38.6,50,61.7,55.8c35.8,9,44,14.5,44,29.2c0,7.5-2.6,12.5-8.5,16.2c-6.6,4.2-17.2,6.5-29.6,6.5
			c-27.3,0-57.1-19.7-66.1-28.6v39.9c0.6,0.3,1.1,0.7,1.7,1c12.5,7.4,37.6,19.9,64.4,19.9c43.4,0,70.3-21,70.3-54.8
			C1298.7,165.1,1290.6,150.2,1274.7,140.1z"/>
	</g>
</g>
</svg>
