<svg id="design" xmlns="http://www.w3.org/2000/svg" viewBox="0 0 4869.19 471.54"><defs><style>.cls-1{fill:#98989a;}.cls-2{fill:#54565a;}</style></defs><polygon class="cls-1" points="188.65 283.46 350.22 283.46 350.22 283.46 350.22 283.46 350.22 0 251.01 0 251.01 184.25 180.14 184.25 188.65 283.46"/><polygon class="cls-1" points="165.97 99.21 236.83 99.21 228.33 0 66.76 0 66.76 368.5 165.97 368.5 165.97 99.21"/><path class="cls-1" d="M323.29,412.87a29.34,29.34,0,1,0,29.62,29.33A29.47,29.47,0,0,0,323.29,412.87Zm0,49.46c-10.64,0-19.27-9-19.27-20.13s8.63-20.12,19.27-20.12,19.28,9,19.28,20.12S333.94,462.33,323.29,462.33Z"/><polygon class="cls-1" points="82.77 446.46 111.12 446.46 111.12 437.39 82.77 437.39 82.77 422.87 114.52 422.87 114.52 413.86 72.57 413.86 72.57 470.55 115.09 470.55 115.09 461.54 82.77 461.54 82.77 446.46"/><polygon class="cls-1" points="393.17 461.48 393.17 413.86 382.96 413.86 382.96 470.55 422.65 470.55 422.65 461.48 393.17 461.48"/><path class="cls-1" d="M22.39,413.86H0v56.69H10.2V452.41H22.39c12.34,0,21.26-8.63,21.26-19.28S37.13,413.86,22.39,413.86Zm-.85,29.48H10.2V422.93H21.54c8.39,0,12.19,4.57,12.19,10.2S29.33,443.34,21.54,443.34Z"/><path class="cls-1" d="M193.89,433.13c0-10.64-6.52-19.27-21.26-19.27H150.24v56.69h10.2V452.41h11.11l12.7,18.14h11.91l-14-20.05A18.89,18.89,0,0,0,193.89,433.13Zm-22.11,10.21H160.44V422.93h11.34c8.39,0,12.19,4.57,12.19,10.2S179.57,443.34,171.78,443.34Z"/><path class="cls-1" d="M260.52,441.7c-3.6-2.3-8-3.51-13.3-4.85-9.65-2.43-11.21-4.17-11.21-7.4,0-4.9,4.76-7.09,9.47-7.09,6.83,0,12.64,3.29,15.5,5.26a28.72,28.72,0,0,1,4.91,4.18V419.3c-4.31-2.85-11.62-6.58-20.41-6.58-11.07,0-19.11,7-19.11,16.73,0,12.1,11.58,15,18.5,16.75,10.73,2.7,13.2,4.33,13.2,8.76a5.2,5.2,0,0,1-2.57,4.86c-2,1.25-5.15,1.94-8.89,1.94-8.19,0-17.12-5.91-19.84-8.59v12l.51.3c3.76,2.23,11.27,6,19.33,6,13,0,21.09-6.3,21.09-16.44A14.85,14.85,0,0,0,260.52,441.7Z"/><path class="cls-2" d="M647.92,58.44c-13.88,122.45-53.29,185.38-72,215.15L551,260.26c23.53-36.56,56.41-91.84,70-205.79Zm115.66,210c-11.06-66.89-30.33-132.66-68-204.09l23.81-11.34c18.14,33.45,55.56,107.72,72.28,208.63ZM823.67,58.15a39.4,39.4,0,1,1-39.4-39.4A39.32,39.32,0,0,1,823.67,58.15Zm-61.23,0a21.83,21.83,0,1,0,21.83-21.82A22,22,0,0,0,762.44,58.15Z"/><path class="cls-2" d="M1082.19,149.15v26.93H838.41V149.15Z"/><path class="cls-2" d="M1157,153.68c-12.47-26.64-29.77-54.42-50.17-77.95L1129,63.26C1157,93,1174,124.2,1181.69,139.51Zm-27.78,102.9C1241.5,231.92,1282.32,160.77,1301,55.89l28.34,5.1c-17.86,86.17-49.89,184.53-183.68,218.26Z"/><path class="cls-2" d="M1411.86,122.22c0,91.56-25.51,131.81-54.71,160.15l-18.7-19c31.46-31.46,48.18-63.78,48.18-139.18V53.05h25.23Zm74,123.59C1520.71,235,1557,224,1572.3,136.67l24.1,10.21c-12.48,56.69-35.72,121.6-136.07,130.39V45.12h25.52Z"/><path class="cls-2" d="M1815,235.6h104.6v25.23H1684V235.6h104V89.9H1699.3V65.24h204.94V89.9H1815Z"/><path class="cls-2" d="M1966.6,258.85c57-12.48,154.21-45.36,173.2-178.3H2039.17c-18.71,29.48-40,54.42-74.27,77.38l-16.15-19.27c27.21-18.43,54.14-43.37,73.41-81.64h147.4c-12.47,143.72-92.69,203.53-192.19,225.92Z"/><path class="cls-2" d="M2209.26,135l-1.42-25.23,61.51-4.81V42h25.8v60.94l148.53-11.62c-6.8,58.68-31.46,93-85.32,117.35l-15-20.12c50.74-20.13,62.08-47.62,68.89-71.15l-117.07,10.2v93.55c0,26.36,10.48,29.76,35.43,29.76h57.26a287.39,287.39,0,0,0,50.74-4l.56,25.51c-10.77,1.42-23.24,3.12-49.6,3.12h-60.66c-48.76,0-59.53-20.13-59.53-53V129.87Z"/><path class="cls-2" d="M2546.86,122.22c0,91.56-25.51,131.81-54.71,160.15l-18.71-19c31.47-31.46,48.19-63.78,48.19-139.18V53.05h25.23Zm74,123.59C2655.71,235,2692,224,2707.3,136.67l24.09,10.21c-12.47,56.69-35.71,121.6-136.06,130.39V45.12h25.51Z"/><path class="cls-2" d="M3928.78,40.48h-27.6V283.75h27.6V140.06c59.46,20.49,106.13,48.94,125.47,60.89l13.38-26.46c-41-22.19-85.08-44.1-138.85-61.18Z"/><rect class="cls-2" x="4349.43" y="149.17" width="244.7" height="27.03"/><rect class="cls-2" x="3599.79" y="149.17" width="244.7" height="27.03"/><path class="cls-2" d="M4228.58,42.18h-26.47v60H4092.57v25h109.54c0,20.48-3.41,51.21-12.23,69.71-13.37,28.74-43.82,48.65-84.51,62.31l14.52,22.19c72.84-26.46,108.69-69.14,108.69-154.21h102.71v-25H4228.58Z"/><path class="cls-2" d="M4827.64,84.58c-8.25-22.76-14.51-37.56-25.89-54.92l-18.49,9.11c11.95,21,16.5,30.73,24.47,56Z"/><path class="cls-2" d="M4792.93,89.13l-20.77-32.44H4616.81V80.88H4769.6c-45.24,123.48-141.7,167.87-167,178.68l15.08,21.06c44.67-20.2,83.65-50.65,115.24-88.21,44.67,39,65.15,58.62,91,87.07l21.35-20.77c-29.6-29.31-54.06-51.21-97-85.64A311.57,311.57,0,0,0,4792.93,89.13Z"/><path class="cls-2" d="M4843.58,18.28l-18.78,9.11c12.52,21.34,17.07,33,24.47,56.05l19.92-10C4863.21,56.41,4856.67,39.34,4843.58,18.28Z"/><path class="cls-2" d="M3457.57,64.09c37.84,71.7,57.19,137.71,68.29,204.86l28.17-6.83c-16.79-101.29-54.35-175.84-72.56-209.41Z"/><path class="cls-2" d="M3312.46,260.7l25,13.37c18.78-29.87,58.33-93,72.27-215.95l-27-4C3369.08,168.51,3336.08,224,3312.46,260.7Z"/><path class="cls-2" d="M3546.63,18.28a39.55,39.55,0,1,0,39.55,39.55A39.65,39.65,0,0,0,3546.63,18.28Zm0,61.46a21.91,21.91,0,1,1,21.91-21.91A22.11,22.11,0,0,1,3546.63,79.74Z"/><polygon class="cls-2" points="2979.1 152.91 2848.22 152.91 2848.22 52.16 2822.63 52.16 2822.63 278.93 2848.22 278.93 2848.22 176.88 2979.1 176.88 2979.1 278.93 3004.7 278.93 3004.7 52.16 2979.1 52.16 2979.1 152.91"/><path class="cls-2" d="M3240.86,120.19v-.65c0-17.82-6.47-33.69-17.49-44.71-14.25-14.25-36.61-22.67-64.47-22.67h-97.51V278.93H3087V190.81h64.79l65.77,88.12H3249l-69.65-92.65C3215,179.8,3240.86,157.77,3240.86,120.19ZM3087,167.81v-92h70c36.61,0,58,16.84,58,44.7v.65c0,29.16-24.3,46.65-58.32,46.65Z"/></svg>