<?xml version="1.0" encoding="utf-8"?>
<!-- Generator: Adobe Illustrator 21.1.0, SVG Export Plug-In . SVG Version: 6.00 Build 0)  -->
<svg version="1.1" id="design" xmlns="http://www.w3.org/2000/svg" xmlns:xlink="http://www.w3.org/1999/xlink" x="0px" y="0px"
	 viewBox="0 0 243.9 28.3" style="enable-background:new 0 0 243.9 28.3;" xml:space="preserve">
<style type="text/css">
	.st0{fill:#FFFFFF;}
</style>
<g>
	<path class="st0" d="M3.3,22.9c0,0.6,0.1,1.1,0.2,1.5c0.2,0.4,0.2,0.7,0.2,1c0,0.8-0.5,1.4-1.1,1.4c-1.8,0-2.6-3.7-2.6-6.5
		c0-3,0.9-5.9,1.7-9.1c0.2-1,0.4-1.8,0.4-2.7C2.1,7,1.7,5.6,0.5,4C0.4,3.9,0.3,3.8,0.3,3.7c0-0.2,0.2-0.3,0.5-0.3
		c1.3,0,3.7,2.7,3.7,5.1c0,1.1-0.5,2.1-1.1,3.4c-0.9,2.1-1.7,4.3-1.7,6.2c0,1.1,0.3,1.5,0.3,1.5c0.1,0,0.2-0.1,0.3-0.3
		c0.9-2,3.2-6.2,3.6-6.2c0,0,0,0,0,0.1c0,0.2-0.1,0.5-0.3,1.1C5.4,14.7,3.3,19.7,3.3,22.9z M22.7,23.9c0,0.8-0.6,1.5-1.3,1.5
		c-0.4,0-1-0.3-1.4-1c-0.6-1-1.4-1.8-2.2-2.3c-0.6,2.7-2.8,4.2-5,4.2c-2.3,0-4.3-1.6-4.3-3.5c0-1.7,2.2-3.3,5.8-3.3
		c0.6,0,1.1,0,1.7,0.1c0-0.4,0-0.8,0-1.1c0-1.3-0.1-4.1-0.1-6.8h-0.1c-0.4,0.1-0.8,0.1-1.2,0.1c-4,0-5.2-3.2-5.2-3.4
		c0-0.1,0-0.1,0.1-0.1c0.2,0,0.4,0.1,0.8,0.2c0.8,0.3,1.7,0.7,2.4,0.9c0.7,0.2,1.3,0.2,1.9,0.2c0.3,0,0.5,0,0.8-0.1
		c0.1,0,0.3,0,0.4-0.1l0-1.9c0-2.5-0.1-2.8-1.5-3.2c-0.3-0.1-0.5-0.1-0.5-0.3c0-0.2,0.7-1.2,1.7-1.2c0.9,0,2.6,1.1,2.6,2.5
		c0,0.3-0.1,0.7-0.1,1.1c1.3,0.4,2.8,0.6,2.8,0.6c0.6,0.1,1,0.5,1,1.1c0,0.7-0.4,2.1-4.2,3c0,0.5,0,0.9,0,1.4c0,1.2,0.1,3.6,0.4,7.4
		C20.5,20.8,22.7,22.4,22.7,23.9z M13,20.9c-2.3,0-3.5,1-3.5,1.7c0,1.3,1.9,1.6,2.6,1.6c1.7,0,3.3-1,3.6-2.8
		C15,21.1,14,20.9,13,20.9z M19.3,8c0-0.1-0.1-0.5-1.4-1.2l0,0.2c-0.1,0.7-0.2,1.4-0.2,2.1C17.8,9,19.3,8.6,19.3,8z"/>
	<path class="st0" d="M38.8,9.1l-0.2,0.4c-1.6,4.3-2.8,8.6-3.8,12.9c-0.2,1.1-0.5,2.3-1.4,3.2c-0.3,0.3-0.7,0.4-1,0.4
		c-0.8,0-1.2-1.1-1.2-1.8c0-0.9,0.4-1.6,1-2.6c1-1.9,3.2-7.5,4.6-11.8L37,9.6c-1.1,0.2-1.1,0.2-1.6,0.2c-1.7,0-4.4-1-4.4-3.2
		c0-0.2,0.1-0.3,0.2-0.3c0.1,0,0.3,0.2,0.6,0.3c1,0.5,2.1,1,3.4,1c0.6,0,1.2-0.1,2.3-0.3c0.1-0.6,0.1-1.1,0.1-1.6
		c0-1-0.2-1.9-0.8-1.9c-0.5,0-0.8-0.1-0.8-0.4c0-0.3,0.7-1.2,1.6-1.2c1,0,2.3,0.8,2.3,2.8c0,0.4-0.1,0.8-0.2,1.3
		c0.7-0.2,1-0.9,1.7-1.1c0.1,0,0.2,0,0.4,0c0.6,0,1,0.3,1,0.8C42.8,7.7,39.2,8.9,38.8,9.1z M52.3,24.3c0,1.1-1.7,1.7-3.6,1.7
		c-3.8,0-7.1-2.1-7.1-4.5c0-1.3,1-2.3,1.3-2.3c0.1,0,0.1,0.1,0.1,0.2c0,0.2-0.1,0.6-0.2,0.8c-0.1,0.2-0.1,0.3-0.1,0.4
		c0,1.2,2.2,2.4,4.6,2.4c0.1,0,0.2,0,0.3,0c0.6,0,1.1-0.2,2-0.2C51.3,22.9,52.3,23.6,52.3,24.3z M53.2,10.2c0,0.5-0.4,1-1.2,1.1
		c-1.7,0.3-2.8,0.5-4.6,1.9c-0.4,0.3-0.6,0.4-0.7,0.4c-0.1,0-0.1,0-0.1-0.1c0-0.1,0.1-0.3,0.3-0.6c1.6-2,1.9-2.5,1.9-2.8
		c0-0.5-1.3-1-2.1-1c-0.1,0-0.2,0-0.4,0c-0.6,0.1-1,0.2-1.2,0.2c-0.1,0-0.2,0-0.2-0.1c0,0,0.8-1.5,3.4-1.5
		C50.7,7.7,53.2,9.1,53.2,10.2z"/>
	<path class="st0" d="M66,27.8c-0.3,0-0.5,0-0.5-0.1c0-0.1,0.4-0.2,1.1-0.4c4.9-1.2,8-4.5,8-7.1c0-1.7-1.2-3.3-3.2-3.3
		c-2.1,0-3.4,1.9-4.9,4.6c-0.5,0.8-1,1.1-1.5,1.1c-0.4,0-3-0.5-3-4.9c0-1.5,0.2-3.3,0.5-4.7c0.1-0.7,0.4-2,0.4-2.9
		c0-0.1,0-0.2,0-0.3c0-0.2,0-0.4,0-0.6c0-1.5,0.7-2.5,2.2-3.4c0.6-0.3,1.1-0.6,1.7-1c0.2-0.1,0.5-0.4,0.5-0.8c0-0.2,0-0.3-0.2-0.6
		c-0.6-1.2-0.9-1.7-0.9-1.9c0-0.1,0.1-0.2,0.2-0.2c1,0,5,2.1,5,4.2C71.4,5.8,71.3,7,70,7c-0.4,0-0.9-0.1-1.4-0.3
		c-0.8-0.3-1.7-0.4-2.3-0.4c-1.3,0-2,0.7-2,1.7c0,0.3,0.1,0.6,0.2,1c0.2,0.8,0.3,1.4,0.3,1.9c0,0.7-0.2,1.4-0.4,2.5
		c-0.2,0.8-0.4,2.6-0.4,3.8c0,1.9,0.6,2.1,0.9,2.1c0.2,0,0.5-0.1,0.8-0.3c0.7-0.5,1.5-1.2,3-2.1c1.1-0.7,2.4-1,3.5-1
		c2.5,0,5.2,1.7,5.2,4.5c0,1.4-0.7,3-2.3,4.5C72.7,27,68,27.8,66,27.8z"/>
	<path class="st0" d="M94,20.1c0,0.2,0,1,0.2,1.9c0,0.2,0.1,0.3,0.1,0.5c0,0.9-0.6,1.4-1.8,1.4c-1,0-7-1.1-7-10.6
		c0-1,0.1-1.9,0.1-2.9c0-0.3,0-0.7,0-1.1c0-0.7,0-1.3-0.1-1.8c-0.1-0.3-0.1-0.6-0.1-0.7c0-0.2,0-0.2,0.2-0.2c0.2,0,2.7,0.8,2.7,3.6
		c0,0.5-0.1,0.9-0.2,1.4c-0.2,1.1-0.4,2.4-0.4,3.7c0,4.7,3.3,5.3,3.4,5.3c0.5,0,0.8-0.3,1-0.6c0.6-1,1.3-2.7,1.8-3.8
		c0.4-0.9,0.7-1.3,0.8-1.3c0,0,0.1,0.1,0.1,0.2c0,0.2-0.1,0.7-0.2,1.4C94.2,17.7,94,18.9,94,20.1z M107.1,15.9c0,1.4-0.8,2-1.6,2
		c-0.7,0-1.4-0.5-1.5-1.6c-0.2-3-2.5-5.6-4.6-6.1c-0.8-0.2-1.3-0.4-1.3-0.6c0-0.1,0.2-0.2,0.8-0.2C104.5,9.5,107.1,13.2,107.1,15.9z
		"/>
	<path class="st0" d="M134.1,6c0,0.7-0.6,1.4-1.9,1.4c-0.2,0-0.5,0-0.7-0.1c-0.6-0.1-1.1-0.1-1.7-0.1c-2,0-3.8,0.5-4.6,0.9
		c-1.8,1-3.3,5.2-3.3,8.9c0,4.6,2.2,6.5,4.7,6.5c0.5,0,1.1-0.1,1.6-0.3c0.3-0.1,0.6-0.2,1-0.2c1.1,0,1.8,0.7,1.8,1.4
		c0,1.7-2.7,2.1-4.1,2.1c-1.3,0-6.6-0.4-6.6-8c0-3.4,1.1-7.3,2.9-9.5c0.1-0.2,0.2-0.3,0.2-0.3c0,0,0,0,0,0c-0.2,0-2.2,0.7-6.2,2.8
		c-0.6,0.3-1.3,0.4-2,0.4c-1.1,0-3.2-0.5-3.2-1.9c0-0.3,0.1-0.4,0.3-0.4c0.2,0,0.4,0.1,0.6,0.1c0.4,0.1,0.8,0.1,1.3,0.1
		c0.6,0,1.4-0.1,2.2-0.4c2.8-1,6.9-3.3,11.3-4.6c0.9-0.2,1.3-0.6,2.6-0.7c0.1,0,0.2,0,0.2,0C133.4,4.2,134.1,5.3,134.1,6z"/>
	<path class="st0" d="M140.7,26.7c-0.9-1.7-2.2-3-3.6-4.1c-0.3-0.2-0.6-0.4-0.6-0.5c0-0.1,0.1-0.1,0.3-0.1c1.2,0,7.1,1,7.1,4
		c0,1-0.8,1.8-1.6,1.8C141.7,27.8,141.1,27.5,140.7,26.7z"/>
	<path class="st0" d="M168.3,17.5c1.9,3.5,6.4,6.9,12.9,7.3c0.1,0,0.2,0,0.2,0.1c0,0.3-3,1.3-3.9,2.3c-0.2,0.2-0.4,0.3-0.6,0.3
		c-1.8,0-7.5-3.4-9-9.5c-2.4,9.7-13.9,9.8-14.3,9.8c-0.3,0-0.6,0-0.6-0.1c0-0.1,0.2-0.2,0.7-0.2c5.5-1,10.5-4.7,11.6-9.9h-1.6
		c-1.7,0-5.5,0.1-8.1,0.3h0c-0.6,0-1.5-1.2-1.5-1.5c3,0.4,8,0.5,9.8,0.5h1.6c0.1-0.5,0.1-1,0.1-1.6c0-0.7,0-1.4-0.1-2.2
		c-1.7,0.1-3.4,0.1-4.9,0.1c-2.9,0-4.3-0.1-4.3-0.4c0-0.1,0.2-0.2,0.8-0.2c3.7-0.2,12.8-1.3,15.4-2.9l0.2-0.1
		c-0.1-0.1-0.2-0.3-0.2-0.4c-0.3-0.7-1-1.8-1.6-2.4c-0.2-0.2-0.3-0.2-0.3-0.3c0-0.1,0.1-0.1,0.3-0.1c1,0,4.4,0.5,4.4,2.5
		c0,0.8-0.6,1.4-1.3,1.4c0.6,0.6,1.4,1.4,1.4,1.9c0,0.2-0.2,0.3-0.5,0.3c-0.2,0-0.5,0-0.7-0.1c-0.1,0-0.2-0.1-0.3-0.1
		c-0.1,0-0.2,0-0.2,0c-1.4,0.2-3.1,0.4-5,0.5c0.2,0,0.3,0.1,0.4,0.1c0.3,0.1,0.4,0.2,0.4,0.3c0,0.2-0.2,0.3-0.5,0.5
		c-0.4,0.2-0.4,0.3-0.5,0.8c-0.1,0.7-0.1,1.4-0.2,1.8v0.2c0,0.1,0,0.2,0,0.2h6.4c0.2,0,0.4-0.1,0.5-0.3c1.3-1.8,1.6-2.2,2-2.2
		c0.7,0,3.2,2.1,3.2,2.9c0,0.2-0.1,0.4-0.6,0.4H168.3z M159.2,5.6c-2.7,3.2-5.2,4.9-5.7,4.9c0,0-0.1,0-0.1-0.1
		c0-0.1,0.1-0.3,0.4-0.6c1.5-1.7,4.6-6.4,5.1-9.6c0-0.2,0-0.3,0.1-0.3c0.3,0,3.8,1.2,3.8,2.1c0,0.2-0.4,0.4-1.1,0.5
		c-0.3,0-0.5,0.1-0.7,0.5c-0.4,0.6-0.8,1.2-1.3,1.8h2.6c0.2,0,0.3-0.1,0.4-0.2c0.8-1.3,1.2-1.9,1.6-1.9c0.6,0,2.6,1.8,2.6,2.5
		c0,0.2-0.1,0.4-0.6,0.4H159.2z M160.9,9.3c-0.3-0.8-1-1.9-1.7-2.6c-0.2-0.1-0.3-0.2-0.3-0.3c0-0.1,0.1-0.1,0.3-0.1
		c0.6,0,4.5,0.4,4.5,2.6c0,0.9-0.7,1.5-1.4,1.5C161.8,10.5,161.3,10.1,160.9,9.3z M169.4,5.6c-1.5,1.9-4.3,4.6-5,4.6
		c0,0-0.1,0-0.1,0c0-0.1,0.1-0.2,0.3-0.5c1.1-1.2,4.2-6.5,4.4-9.2c0-0.3,0-0.4,0.2-0.4c0.3,0,3.8,1.3,3.8,2c0,0.2-0.4,0.4-1,0.5
		c-0.3,0-0.4,0-0.6,0.3c-0.4,0.6-0.9,1.3-1.4,1.9h4.6c0.2,0,0.4-0.1,0.5-0.2c1.5-2.1,1.6-2.1,1.8-2.1c0.1,0,0.1,0,0.2,0
		c0.9,0.3,2.8,2,2.8,2.7c0,0.2-0.2,0.4-0.6,0.4H169.4z"/>
	<path class="st0" d="M209.3,18.9c0,3-3.4,5.6-6.7,5.6c-2,0-3.3-1.2-3.3-3.2c0-1.7,1.2-4.2,1.5-4.2c0,0,0.1,0.1,0.1,0.2
		c0,0.2-0.1,0.6-0.2,1.2c-0.1,0.4-0.2,0.9-0.2,1.3c0,1.3,0.6,2.3,2.2,2.3c1.7,0,4.3-1.3,4.3-3.5c0-2-2.2-2.5-3.4-2.5
		c-2.4,0-4.7,1.6-6.9,3.3c0,1.1,0,2.2,0.1,3.2c0,0.1,0,0.2,0,0.3c0,1.4-0.2,2.6-1.4,2.6c-0.5,0-0.8-0.3-1.2-0.9
		c-0.4-0.7-1.4-1.2-2.5-1.5c-1.3,0.9-2.2,1.2-3,1.2c-0.8,0-1.1-0.4-1.1-0.9c0-1,1.1-2.2,1.6-2.2c0.1,0,0.2,0.1,0.4,0.1
		c0.1,0,0.2,0.1,0.4,0.1c0.4,0,1.4-0.3,5.2-2.7c0-0.8,0-1.5,0-2.3c0-1,0-2.1-0.1-3.1c-1.2,0.5-2.2,0.9-3.5,0.9
		c-2.6,0-2.9-1.7-2.9-2.4c0-0.3,0.1-0.4,0.2-0.4c0.1,0,0.3,0.1,0.5,0.2c0.4,0.2,1.2,0.4,2.2,0.4c1.2,0,1.9-0.2,3.4-0.9
		c-0.2-3.1-0.3-4.3-1.6-4.3c-0.7,0-1-0.1-1-0.3c0-0.3,0.7-1.3,1.8-1.3c0.7,0,2.5,0.7,2.5,2.3c0,0.2,0,0.5,0,0.8
		c0.5,0.1,1,0.2,1.5,0.2c0.2,0,0.3,0,0.5,0c0.1,0,0.1,0,0.2,0c0.6,0,1,0.4,1,1c0,1.1-1.1,2-3.2,3c0,1.7,0.1,3.5,0.1,5.2
		c2.3-1.4,4.9-2.6,7.5-2.6C207.4,15.2,209.3,16.8,209.3,18.9z M192.1,22.8c0.7,0.1,1.3,0.2,1.7,0.2c0.8,0,1-0.2,1-0.6
		c0.1-0.6,0.1-1.3,0.1-2C194,21.2,193,22.1,192.1,22.8z M196.6,8.8c0,0.3,0,0.6,0,1v0.6c0.2-0.1,0.3-0.2,0.4-0.2
		c0.2-0.2,0.3-0.3,0.3-0.5C197.3,9.3,197.1,9.1,196.6,8.8z M211.9,10.8c0,0.9-0.7,1.1-2.1,1.4c-0.7,0.1-1.7,0.3-2.4,0.7
		c-0.3,0.2-0.6,0.3-0.8,0.3c-0.1,0-0.1,0-0.1-0.1c0-0.1,0.1-0.3,0.5-0.6c0.3-0.3,0.9-1.2,0.9-1.8c0-0.4-0.2-0.8-1.4-0.8
		c-0.7,0-1.4,0.2-1.9,0.7c-0.5,0.4-0.9,0.6-1,0.6c-0.1,0-0.1,0-0.1-0.1c0-0.4,1.5-2.9,4.5-2.9C209.8,8.1,211.9,9.2,211.9,10.8z"/>
	<path class="st0" d="M219.1,28.3C219,28.3,219,28.3,219.1,28.3c-0.1-0.2,0.2-0.4,1.1-0.9c2.9-1.7,8.5-6.7,8.5-13.1
		c0-2.8-1.1-4.8-2.6-4.8c-0.6,0-1.4,0.4-2.2,1.2c-0.6,0.6-1.4,1.2-2.3,1.2c-1.4,0-2.7-1.1-2.7-2.5c0-0.9,0.5-1.5,0.7-1.5
		c0.2,0,0.3,0.2,0.5,0.6c0.2,0.4,0.6,0.5,1,0.5c0.6,0,1.4-0.2,1.9-0.4c1-0.4,2.2-0.8,3.4-0.8c2.9,0,5,3,5,6.6c0,1.4-0.3,2.9-1,4.4
		C227.6,26,219.9,28.3,219.1,28.3z M228.9,3.5c0,0.6-0.6,1.1-2,1.2c-1.3,0-2.7,0.4-4.4,1.1C222.2,5.9,222,6,221.8,6
		c-0.1,0-0.1,0-0.1-0.1c0-0.1,0.2-0.2,0.5-0.5c0.5-0.4,1.1-0.9,1.4-1.3c0.2-0.2,0.2-0.3,0.2-0.4c0-0.1-0.1-0.2-0.2-0.2
		c-2.6-1-3-2.4-3-2.6c0-0.1,0.1-0.2,0.2-0.2c0.2,0,0.6,0.2,1.1,0.4c0.7,0.3,2.3,0.4,3.5,0.4c0.3,0,0.6,0,0.9,0
		C227.9,1.6,228.9,2.6,228.9,3.5z"/>
	<path class="st0" d="M236.8,24.2c0-2,1.6-3.6,3.6-3.6c2,0,3.6,1.6,3.6,3.6s-1.6,3.6-3.6,3.6C238.4,27.8,236.8,26.2,236.8,24.2z
		 M242.9,24.2c0-1.4-1.1-2.5-2.5-2.5c-1.4,0-2.6,1.1-2.6,2.5c0,1.4,1.2,2.6,2.6,2.6C241.8,26.8,242.9,25.6,242.9,24.2z"/>
</g>
</svg>
