<?xml version="1.0" encoding="utf-8"?>
<!-- Generator: Adobe Illustrator 23.0.6, SVG Export Plug-In . SVG Version: 6.00 Build 0)  -->
<svg version="1.1" id="レイヤー_1" xmlns="http://www.w3.org/2000/svg" xmlns:xlink="http://www.w3.org/1999/xlink" x="0px"
	 y="0px" viewBox="0 0 50 50" style="enable-background:new 0 0 50 50;" xml:space="preserve">
<g>
	<g>
		<path d="M39.5,3.99l-1.7,1.7l6.81,6.81l-6.81,6.81l1.7,1.7l6.81-6.81l0,0l1.7-1.7L39.5,3.99z M5.39,12.51L12.2,5.7l-1.7-1.7
			l-8.51,8.51l1.7,1.7l0,0l6.81,6.81l1.7-1.7L5.39,12.51z M20,20.49v-7.48c0-2.76,2.24-5,5-5s5,2.24,5,5v7.48
			c2.42-1.62,4-4.36,4-7.48c0-4.98-4.02-9-9-9s-9,4.02-9,9C16,16.12,17.58,18.86,20,20.49z M39.68,29.75l-9.08-4.52
			C30.26,25.08,29.9,25,29.52,25H28v-12c0-1.66-1.34-3-3-3s-3,1.34-3,3v21.48c-7.2-1.52-7.08-1.5-7.34-1.5
			c-0.62,0-1.18,0.26-1.58,0.66l-1.58,1.6l9.88,9.88c0.54,0.54,1.3,0.88,2.12,0.88h13.58c1.5,0,2.66-1.1,2.88-2.56l1.5-10.54
			c0.02-0.14,0.04-0.28,0.04-0.4C41.5,31.26,40.74,30.18,39.68,29.75z" style="fill:#ffffff;"/>
	</g>
</g>
</svg>
