<?xml version="1.0" encoding="utf-8"?>
<!-- Generator: Adobe Illustrator 20.1.0, SVG Export Plug-In . SVG Version: 6.00 Build 0)  -->
<svg version="1.1" id="レイヤー_1" xmlns="http://www.w3.org/2000/svg" xmlns:xlink="http://www.w3.org/1999/xlink" x="0px"
	 y="0px" viewBox="0 0 525.3781128 59.7769585" style="enable-background:new 0 0 525.3781128 59.7769585;" xml:space="preserve">
<style type="text/css">
	.st0{fill:#97999B;}
	.st1{fill:#53565A;}
</style>
<g>
	<polygon class="st0" points="23.9144745,35.9344254 44.3969765,35.9344864 44.3969765,35.9344254 44.3970375,35.9344254 
		44.3969765,0 31.8202515,0 31.8202515,23.3574543 22.8364449,23.3574543 	"/>
	<polygon class="st0" points="21.0396461,12.577033 30.0231438,12.577033 28.9451141,0.0000619 8.4625502,0 8.4625502,46.7147827 
		21.0396461,46.7147827 	"/>
	<path class="st0" d="M40.983242,52.3385239c-2.0739136,0-3.755146,1.6651535-3.755146,3.7192192
		s1.6812325,3.7192154,3.755146,3.7192154c2.0739174,0,3.7551498-1.6651497,3.7551498-3.7192154
		S43.0571594,52.3385239,40.983242,52.3385239z M40.983242,58.6090889c-1.3495178,0-2.4435501-1.1422729-2.4435501-2.5513458
		c0-1.4090652,1.0940323-2.5513458,2.4435501-2.5513458c1.3495407,0,2.4435463,1.1422806,2.4435463,2.5513458
		C43.4267883,57.4668159,42.3327827,58.6090889,40.983242,58.6090889z"/>
	<polygon class="st0" points="10.4928617,56.5967598 14.0863123,56.5967598 14.0863123,55.4468575 10.4928617,55.4468575 
		10.4928617,53.6070137 14.5175228,53.6070137 14.5175228,52.4643021 9.1992149,52.4643021 9.1992149,59.6511879 
		14.5893869,59.6511879 14.5893869,58.5084724 10.4928617,58.5084724 	"/>
	<polygon class="st0" points="49.8410835,58.5012932 49.8410835,52.4643021 48.5474472,52.4643021 48.5474472,59.6511879 
		53.57827,59.6511879 53.57827,58.5012932 	"/>
	<path class="st0" d="M2.8388264,52.4643021H0v7.1868858h1.2936465v-2.2998047h1.54518
		c1.5642679,0,2.6950743-1.094017,2.6950743-2.4435425C5.5339007,53.5583076,4.7073426,52.4643021,2.8388264,52.4643021z
		 M2.7310219,56.2014732v0.0000076H1.2936465v-2.5872841h1.4373754c1.0635841,0,1.5451798,0.5791855,1.5451798,1.293644
		C4.2762017,55.6222954,3.7185478,56.2014732,2.7310219,56.2014732z"/>
	<path class="st0" d="M24.5791588,54.9078407c0-1.3495331-0.8265591-2.4435387-2.6950741-2.4435387h-2.8388271v7.1868858h1.2936382
		v-2.2998047h1.4081593l1.6103439,2.2998047h1.5092487l-1.7795448-2.5414505
		C23.9956379,56.7148247,24.5791588,55.8772621,24.5791588,54.9078407z M21.7762871,56.2014732v0.0000076h-1.4373913v-2.5872841
		h1.4373913c1.0635777,0,1.5451813,0.5791855,1.5451813,1.293644
		C23.3214684,55.6222954,22.7638054,56.2014732,21.7762871,56.2014732z"/>
	<path class="st0" d="M33.0261116,55.9937935c-0.4561958-0.2913704-1.0097504-0.4446335-1.685955-0.6147079
		c-1.2236614-0.3078079-1.4211197-0.5287094-1.4211197-0.938385c0-0.6205978,0.6027946-0.8983688,1.2002182-0.8983688
		c0.865694,0,1.6026611,0.4172211,1.9649162,0.6659317c0.2740021,0.1881104,0.4782143,0.3738441,0.6223679,0.5299377v-1.5836258
		c-0.5466805-0.3623581-1.4725266-0.834034-2.5872841-0.834034c-1.4033928,0-2.421999,0.8916664-2.421999,2.1201591
		c0,1.533432,1.4678364,1.9026451,2.3448734,2.1232529c1.3599625,0.3420296,1.6726074,0.5496902,1.6726074,1.110836
		c0,0.2841911-0.1002541,0.4740524-0.3250923,0.6156197c-0.2527733,0.1591606-0.6528873,0.2468071-1.1266613,0.2468071
		c-1.0383663,0-2.170845-0.7501907-2.5154037-1.0894585v1.5156708c0.0214405,0.0130692,0.0430183,0.0260658,0.0647526,0.0389671
		c0.4764519,0.2825584,1.4284,0.7566032,2.4506512,0.7566032c1.6490841,0,2.6735325-0.7986183,2.6735325-2.0842094
		C33.9365158,56.9452019,33.630188,56.3796196,33.0261116,55.9937935z"/>
</g>
<g>
	<path class="st1" d="M256.9589844,7.1869812c-2.452774,4.8693476-5.8793335,8.0434875-9.3420715,10.3880901l2.0559998,2.4526634
		c4.3643494-2.9215927,7.0695801-6.0957327,9.4501953-9.8469706h12.8047485
		c-2.4167175,16.9166336-14.7885437,21.1007462-22.0385437,22.6878319l1.3706818,3.0658798
		c12.6604156-2.8494797,22.8680573-10.460186,24.4551239-28.7474937H256.9589844z"/>
	<path class="st1" d="M430.7299194,7.1869812h-23.6255798v3.0658951h19.3693542
		c-1.3346252,3.607029-3.1741333,7.8992939-7.6828918,12.9129581c-5.302124,5.8793335-10.4962463,8.4403362-13.4900513,9.738802
		l1.9477844,2.6691551c7.8632507-3.5708809,12.8408203-9.1617355,14.6082458-11.1094913
		c1.1542053,0.9739323,6.4204102,5.4104977,11.5061646,10.965189l2.7413025-2.5970421
		c-2.7051392-2.6691532-6.0236206-5.8431854-12.2636414-10.8208084
		C426.1490784,18.8735542,429.0346069,14.3647833,430.7299194,7.1869812z"/>
	<path class="st1" d="M438.9790649,18.0078678l2.1281128,2.5248528c2.5248413-1.5870552,3.5348206-2.5969486,4.5808411-3.6429768
		c5.3022461,2.6691532,8.4764099,4.9054031,11.4701843,7.466404c-4.1119385,4.5086784-9.7027588,7.1778183-15.6181641,8.5845299
		l1.5509338,2.9937973c21.6417847-5.6268806,23.5174561-22.8681602,24.166748-28.7474937h-18.6480103
		C446.4454346,11.9842472,443.2713013,15.3387299,438.9790649,18.0078678z M463.542511,10.1807642
		c-0.8296204,5.5907621-2.4888,8.9091883-4.4005127,11.7226439c-3.5708618-3.0659103-7.7189636-5.3022518-11.4701538-7.1779099
		c0.9739075-1.190237,1.6231079-2.0198822,3.1020203-4.544734H463.542511z"/>
	<path class="st1" d="M475.9036865,23.2018757c-0.4689636-2.0559235-1.3346252-5.5186348-3.0658875-8.8370924l-2.7053223,0.7575483
		c1.2624207,2.6330986,2.3085022,5.3382931,2.8856506,8.8009281L475.9036865,23.2018757z"/>
	<path class="st1" d="M472.8016663,33.6260223l2.019928,2.452755c12.4079895-2.9577408,17.0249023-9.6305733,19.4054565-21.9664192
		l-3.138092-0.6492872C489.0329895,26.412056,483.9832458,31.3175678,472.8016663,33.6260223z"/>
	<path class="st1" d="M483.8028564,21.5787487c-0.468811-2.344511-1.5509033-6.167922-2.5969238-8.5484734l-2.6691284,0.6131392
		c1.1541443,2.7413435,1.8755493,5.6629362,2.3805237,8.620677L483.8028564,21.5787487z"/>
	<path class="st1" d="M497.6766663,7.7280235v3.2101955h23.9862976
		c-1.1901855,10.9291325-5.9874878,18.4676342-20.5957642,21.425375l1.3346558,3.0298538
		c18.8643799-4.0037689,22.1467896-16.1952496,22.9762573-27.6654243H497.6766663z"/>
	<rect x="216.5781555" y="6.5375547" class="st1" width="23.5534878" height="3.0298538"/>
	<path class="st1" d="M213.6565552,18.8012257h14.1392365v0.8296299c0,8.8731327-3.9676208,11.86693-12.1914825,13.3097
		l1.3705902,2.9577408c3.065979-0.6132317,9.5224152-2.1280975,12.2998047-7.79105
		c1.4427795-2.9216843,1.8395233-6.9614182,1.8395233-8.6567345v-0.6492863h11.9029541v-3.0298386h-29.3606262V18.8012257z"/>
	<path class="st1" d="M274.2776489,32.7241554l1.8395081,2.9215927
		c10.8929749-4.2562084,19.4776306-11.0012283,25.1045227-28.5309868l-3.6791382-0.901742
		C292.8174133,21.9032688,285.6035156,28.467947,274.2776489,32.7241554z"/>
	<path class="st1" d="M306.9712219,33.8422966h26.6192627V8.0164871h-26.6192627V33.8422966z M310.253479,11.1184378h20.054718
		v19.6219215h-20.054718V11.1184378z"/>
	<path class="st1" d="M353.4093628,10.2889013c-2.8495178-1.3706875-6.3843384-2.9937983-10.5683594-3.9316888l-1.2984619,2.741343
		c3.7150574,1.0460434,7.1777954,2.344511,10.4962463,4.1840353L353.4093628,10.2889013z"/>
	<path class="st1" d="M340.640686,31.6060467l0.7935791,3.5347309c14.7164307-1.9116211,21.7138977-7.4664192,26.4030151-20.8481998
		l-2.8134766-2.0560303C361.0560913,24.7527657,354.9964294,30.1993027,340.640686,31.6060467z"/>
	<path class="st1" d="M364.8795166,10.1806402c-1.1903076-3.1741405-1.8756409-4.8333068-3.3184204-6.9974594l-2.3445129,1.1902366
		c1.6591797,2.8494806,2.1641846,4.075851,3.138092,7.0696492L364.8795166,10.1806402z"/>
	<path class="st1" d="M365.2402039,4.0127177c1.5510254,2.7413435,2.1281433,4.2562089,3.0298767,7.1417603l2.5608826-1.2263851
		c-1.0820618-3.2462211-2.0559082-5.1939912-3.2101746-7.0334997L365.2402039,4.0127177z"/>
	<path class="st1" d="M350.4517212,18.7291451c-2.7774048-1.6231422-7.1057434-3.2823095-10.4241638-4.0758829l-1.2624207,2.8494959
		c5.1940002,1.5149574,8.4763794,3.2101803,10.3519592,4.2922649L350.4517212,18.7291451z"/>
	<rect x="372.8433228" y="18.9094868" class="st1" width="31.019907" height="3.4265788"/>
	<path class="st1" d="M87.9469376,8.1246243c4.7972565,9.0896244,7.25,17.4577713,8.6567459,25.9702015l3.5708771-0.8656845
		c-2.1281128-12.8408623-6.8893204-22.2910767-9.1977844-26.5473003L87.9469376,8.1246243z"/>
	<path class="st1" d="M69.551384,33.0487823l3.1741409,1.6952248c2.380661-3.7872791,7.39431-11.7947254,9.1617279-27.3768234
		l-3.4265823-0.5049858C76.7293015,21.3622265,72.5451813,28.3957272,69.551384,33.0487823z"/>
	<path class="st1" d="M99.2366714,2.3174794c-2.7051926,0-5.013649,2.2002089-5.013649,5.013649
		c0,2.7773066,2.2723999,5.0136642,5.013649,5.0136642c2.7773972,0,5.0137558-2.2363577,5.0137558-5.0136642
		C104.2504272,4.5176883,101.9780121,2.3174794,99.2366714,2.3174794z M99.2366714,10.1084347
		c-1.5148849,0-2.7773056-1.2624254-2.7773056-2.7773066c0-1.5510139,1.2624207-2.7773995,2.7773056-2.7773995
		c1.5149765,0,2.7773972,1.2263856,2.7773972,2.7773995C102.0140686,8.8460093,100.7876968,10.1084347,99.2366714,10.1084347z"/>
	<rect x="105.9752884" y="18.9094563" class="st1" width="31.019846" height="3.4265943"/>
	<path class="st1" d="M142.7192993,32.5798531l2.0920715,2.8855515
		c17.0248718-4.2922783,21.1008453-16.8083878,23.3731537-27.7735767l-3.6069489-0.6492877
		C162.1969147,20.388279,157.0028381,29.4417553,142.7192993,32.5798531z"/>
	<path class="st1" d="M149.3922272,17.6830845c-0.973938-1.9477692-3.138092-5.91539-6.7089691-9.7027617l-2.8134613,1.5870705
		c2.5971527,2.993782,4.7973633,6.5286226,6.3843384,9.9191599L149.3922272,17.6830845z"/>
	<path class="st1" d="M188.0905762,31.2091827v-25.53722h-3.2464447v29.5409889
		c12.7686615-1.1181259,15.7264862-9.3781185,17.3134766-16.5920849l-3.0657959-1.2984657
		C197.1439514,28.4318752,192.5270233,29.838604,188.0905762,31.2091827z"/>
	<path class="st1" d="M175.4661102,15.7353153c0,9.594532-2.1281128,13.70644-6.1317749,17.7102261l2.3806458,2.4166985
		c3.7150879-3.607029,6.961319-8.7289391,6.961319-20.379364V6.6818409h-3.2101898V15.7353153z"/>
</g>
</svg>
