<svg id="レイヤー_1" data-name="レイヤー 1" xmlns="http://www.w3.org/2000/svg" viewBox="0 0 600 74.58"><defs><style>.cls-1{fill:#fff;}</style></defs><title>名称未設定-1</title><path class="cls-1" d="M9,60.93a11.81,11.81,0,0,0,.61,3.89,7.48,7.48,0,0,1,.53,2.67c0,2.18-1.21,3.64-2.8,3.64C2.92,71.13.88,61.5.88,53.9.88,46,3,38.45,5,30a30.44,30.44,0,0,0,1.06-7.2A19.15,19.15,0,0,0,2.16,11.35c-.3-.41-.6-.73-.6-1,0-.41.52-.73,1.21-.73,3.17,0,9.14,7.12,9.14,13.35,0,2.83-1.13,5.42-2.64,9.06C7.07,37.47,5,43.38,5,48.4c0,2.83.69,4,.84,4s.37-.24.68-.89c2.27-5.26,7.79-16.42,8.77-16.42.08,0,.08.08.08.24a9.23,9.23,0,0,1-.84,2.83C14.11,39.5,9,52.68,9,60.93Zm47.72,2.75c0,2.11-1.36,4.05-3.1,4.05-1.06,0-2.34-.81-3.4-2.75a19.7,19.7,0,0,0-5.52-6.07c-1.52,7.12-7,10.92-12.33,10.92-5.75,0-10.59-4.28-10.59-9.3,0-4.53,5.3-8.74,14.14-8.74a24.23,24.23,0,0,1,4.24.33c.07-1.13.07-2.11.07-3-.07-3.39-.22-10.67-.3-17.87h-.22a19.61,19.61,0,0,1-3,.32A12.83,12.83,0,0,1,24,22.75c0-.24.07-.32.3-.32a10.94,10.94,0,0,1,2,.65c2,.73,4.23,1.94,5.82,2.34a20.07,20.07,0,0,0,4.77.65,16.18,16.18,0,0,0,2-.16c.31-.08.69-.08,1-.16l-.08-4.94c-.07-6.63-.3-7.44-3.63-8.33-.68-.16-1.13-.32-1.13-.81a4.77,4.77,0,0,1,4.16-3.15c2.19,0,6.27,2.83,6.27,6.47a21.72,21.72,0,0,1-.3,2.83,47.07,47.07,0,0,0,7,1.62,2.59,2.59,0,0,1,2.34,2.83c0,1.94-1.06,5.5-10.36,8,0,1.21-.07,2.42-.07,3.56,0,3.07.15,9.54,1,19.49C51.24,55.43,56.76,59.64,56.76,63.68Zm-23.82-8c-5.6,0-8.55,2.5-8.55,4.45,0,3.39,4.62,4.12,6.43,4.12a8.84,8.84,0,0,0,8.93-7.36A20.12,20.12,0,0,0,32.94,55.68Zm15.43-33.9c0-.24-.23-1.37-3.33-3.07l-.08.48c-.3,1.86-.37,3.64-.53,5.42C44.66,24.53,48.37,23.4,48.37,21.78Z" transform="translate(-0.88 -0.75)"/><path class="cls-1" d="M96.39,24.61,96,25.67a251.12,251.12,0,0,0-9.22,34.05c-.61,2.83-1.14,6.07-3.56,8.33a3.48,3.48,0,0,1-2.42,1.14c-2,0-2.87-2.92-2.87-4.78,0-2.26,1-4.12,2.34-6.87,2.5-5.1,7.87-19.74,11.42-31.07l.15-.48a14.24,14.24,0,0,1-4,.56c-4.16,0-10.74-2.58-10.74-8.41,0-.48.15-.73.37-.73a7.09,7.09,0,0,1,1.52.73c2.49,1.3,5.14,2.59,8.39,2.59a22.53,22.53,0,0,0,5.67-.81,27.18,27.18,0,0,0,.31-4.2c0-2.76-.53-4.94-2.05-5-1.21-.08-2-.32-2-1a4.45,4.45,0,0,1,3.86-3.24c2.34,0,5.67,2.19,5.67,7.28a18.42,18.42,0,0,1-.38,3.4c1.74-.56,2.57-2.43,4.24-2.83a3.43,3.43,0,0,1,.9-.08c1.44,0,2.5.73,2.5,2.18C106.07,21,97.37,24.21,96.39,24.61Zm33.05,40.05c0,3-4.24,4.36-8.93,4.36C111.14,69,103,63.44,103,57.29c0-3.39,2.57-6.14,3.11-6.14.22,0,.3.24.3.64a5.85,5.85,0,0,1-.53,2.11,3,3,0,0,0-.23,1.13c0,3.15,5.3,6.39,11.42,6.39h.76a45.81,45.81,0,0,1,4.91-.57C127.17,60.93,129.44,62.79,129.44,64.66Zm2.19-37.13c0,1.29-1,2.5-3,2.83a20.88,20.88,0,0,0-11.42,5.09,4.11,4.11,0,0,1-1.82,1c-.15,0-.23-.08-.23-.16a3.12,3.12,0,0,1,.76-1.53c3.86-5.34,4.61-6.48,4.61-7.45,0-1.37-3.17-2.75-5.22-2.75a3.43,3.43,0,0,0-.9.08,23,23,0,0,1-3,.65c-.3,0-.37-.08-.37-.24,0,0,2-4.05,8.39-4.05S131.63,24.61,131.63,27.53Z" transform="translate(-0.88 -0.75)"/><path class="cls-1" d="M163.17,73.8c-.84,0-1.29-.08-1.29-.25s.91-.64,2.72-1.13c12.11-3.23,19.74-11.89,19.74-18.6,0-4.37-3-8.58-7.94-8.58-5.14,0-8.24,4.94-12,12-1.13,2-2.35,3-3.71,3-1,0-7.33-1.22-7.33-13a80.73,80.73,0,0,1,1.21-12.29,54.12,54.12,0,0,0,1-7.69c0-.32-.07-.65-.07-.89a12,12,0,0,1-.08-1.7c0-4,1.74-6.47,5.37-8.89,1.36-.89,2.8-1.62,4.16-2.59a2.51,2.51,0,0,0,1.13-2,2.9,2.9,0,0,0-.38-1.45c-1.59-3.16-2.11-4.45-2.11-5,0-.32.15-.4.45-.4,2.42,0,12.4,5.42,12.4,11,0,.73-.23,3.88-3.33,3.88a10.76,10.76,0,0,1-3.55-.81,18.49,18.49,0,0,0-5.75-1.13c-3.25,0-4.84,1.78-4.84,4.45a8.75,8.75,0,0,0,.46,2.59,17.58,17.58,0,0,1,.83,5,37.87,37.87,0,0,1-.91,6.56,68.92,68.92,0,0,0-1,10.11c0,5.1,1.59,5.42,2.12,5.42a3.44,3.44,0,0,0,2-.89c1.81-1.3,3.78-3.16,7.34-5.5a15.94,15.94,0,0,1,8.69-2.75c6.13,0,12.79,4.53,12.79,11.89,0,3.8-1.82,8-5.6,11.81C179.66,71.85,168.08,73.8,163.17,73.8Z" transform="translate(-0.88 -0.75)"/><path class="cls-1" d="M232.14,53.73a29.27,29.27,0,0,0,.45,5,6.35,6.35,0,0,1,.15,1.21c0,2.27-1.58,3.81-4.53,3.81-2.42,0-17.32-3-17.32-27.91,0-2.51.15-5.1.3-7.61.08-.89.08-1.86.08-2.83a38.59,38.59,0,0,0-.23-4.61,11.37,11.37,0,0,1-.23-1.94c0-.4.08-.65.46-.65s6.58,2,6.58,9.39a18.93,18.93,0,0,1-.38,3.56,53,53,0,0,0-1.06,9.62c0,12.46,8,13.92,8.47,13.92a2.77,2.77,0,0,0,2.34-1.46c1.44-2.75,3.18-7.12,4.54-10,1.06-2.27,1.67-3.32,1.89-3.32s.15.16.15.41a24,24,0,0,1-.6,3.64A49.07,49.07,0,0,0,232.14,53.73Zm32.14-11.16c0,3.56-2,5.34-3.93,5.34s-3.41-1.37-3.63-4.29c-.61-8-6.05-14.72-11.2-16.09-2-.57-3.17-1.06-3.17-1.46,0-.24.6-.4,2-.4C258,25.67,264.28,35.45,264.28,42.57Z" transform="translate(-0.88 -0.75)"/><path class="cls-1" d="M330.6,16.52c0,1.86-1.59,3.56-4.76,3.56a13.89,13.89,0,0,1-1.74-.16A23.45,23.45,0,0,0,320,19.6c-4.84,0-9.31,1.21-11.2,2.34-4.53,2.75-8.16,13.76-8.16,23.46,0,12,5.52,17,11.49,17a11.87,11.87,0,0,0,4-.73,6.27,6.27,0,0,1,2.34-.4c2.65,0,4.39,1.78,4.39,3.72,0,4.45-6.73,5.42-10,5.42s-16.34-1.05-16.34-21c0-9.06,2.8-19.34,7-25.08.3-.4.6-.73.6-.89h-.08c-.37,0-5.44,1.94-15.2,7.44a9.57,9.57,0,0,1-4.84,1.14c-2.79,0-7.79-1.3-7.79-5.1,0-.81.23-1.05.68-1.05s1,.24,1.59.32a19.61,19.61,0,0,0,3.1.32A13,13,0,0,0,287,25.42c6.81-2.75,17.09-8.65,27.83-12,2.2-.65,3.26-1.7,6.28-1.78h.6C328.86,11.67,330.6,14.66,330.6,16.52Z" transform="translate(-0.88 -0.75)"/><path class="cls-1" d="M346.91,70.88A31.53,31.53,0,0,0,338,60.21c-.75-.65-1.36-1.05-1.36-1.3s.23-.16.68-.16c2.95,0,17.55,2.59,17.55,10.6,0,2.59-1.89,4.61-3.93,4.61C349.48,74,348,73.07,346.91,70.88Z" transform="translate(-0.88 -0.75)"/><path class="cls-1" d="M414.79,46.86c4.69,9.14,15.8,18.2,31.76,19.17.3,0,.45.08.45.16,0,.73-7.33,3.4-9.6,6.07A2,2,0,0,1,436,73c-4.38,0-18.37-9.06-22.08-24.92C408,73.63,379.78,74,378.64,74c-.83,0-1.36-.08-1.36-.33s.53-.4,1.74-.64c13.53-2.67,25.79-12.46,28.59-26.13h-3.94c-4.16,0-13.53.24-20,.89h-.08c-1.43,0-3.7-3.08-3.7-4a235.83,235.83,0,0,0,24,1.22h3.94a38.26,38.26,0,0,0,.3-4.21,50.61,50.61,0,0,0-.23-5.82c-4.08.16-8.24.32-12.1.32-7.11,0-10.51-.24-10.51-1,0-.24.53-.49,1.89-.57,9.15-.56,31.54-3.39,38-7.52l.46-.32a5.16,5.16,0,0,1-.61-1.14,23.67,23.67,0,0,0-4-6.39c-.38-.4-.69-.64-.69-.81s.23-.24.84-.24c2.57,0,10.74,1.3,10.74,6.56a3.79,3.79,0,0,1-3.1,3.8c1.51,1.61,3.55,3.8,3.55,5,0,.65-.53.89-1.29.89a5.36,5.36,0,0,1-1.81-.32,2.61,2.61,0,0,0-.83-.16c-.23,0-.46.08-.61.08-3.4.56-7.71,1-12.32,1.29.37.08.68.24,1,.33.68.24.91.56.91.88s-.46.81-1.21,1.3c-.91.48-1.06.73-1.21,2.18-.16,1.78-.31,3.64-.46,4.78v.48a1.39,1.39,0,0,1-.07.57h15.65a1.69,1.69,0,0,0,1.29-.73c3.25-4.85,4-5.91,4.84-5.91,1.81,0,7.78,5.59,7.78,7.61,0,.48-.3,1-1.58,1ZM392.48,15.55c-6.58,8.34-12.85,12.87-13.91,12.87a.18.18,0,0,1-.16-.17c0-.24.31-.72,1-1.53C383,22.35,390.66,10,391.88,1.48c.07-.49,0-.73.22-.73.76,0,9.45,3.15,9.45,5.58,0,.65-1,1-2.64,1.22-.83.08-1.14.32-1.74,1.37A52.6,52.6,0,0,1,394,13.61h6.43a1.15,1.15,0,0,0,1-.65c1.89-3.31,3-5,3.86-5,1.59,0,6.28,4.61,6.28,6.63,0,.49-.31,1-1.44,1Zm4.24,9.71a22.22,22.22,0,0,0-4.09-6.79c-.38-.33-.68-.65-.68-.81s.23-.25.83-.25c1.44,0,11,1,11,6.88a3.86,3.86,0,0,1-3.56,4C398.91,28.33,397.55,27.44,396.72,25.26Zm20.79-9.71c-3.63,4.94-10.51,12-12.4,12-.08,0-.15,0-.15-.09,0-.24.3-.64.83-1.29C408.59,22.91,416.07,9,416.68,2c.07-.81.07-1,.38-1,.83,0,9.3,3.48,9.3,5.34,0,.65-.91,1.13-2.34,1.3a1.61,1.61,0,0,0-1.59.89c-1.06,1.61-2.2,3.31-3.48,5.09h11.42A1.4,1.4,0,0,0,431.5,13c3.63-5.41,3.93-5.58,4.54-5.58a.9.9,0,0,1,.45.08c2.2.89,7,5.34,7,7.12,0,.57-.38,1-1.59,1Z" transform="translate(-0.88 -0.75)"/><path class="cls-1" d="M515.6,50.42c0,7.76-8.47,14.72-16.41,14.72-4.92,0-8.1-3.15-8.1-8.41,0-4.45,3-11,3.79-11,.07,0,.15.16.15.48a14.6,14.6,0,0,1-.61,3.24,13.18,13.18,0,0,0-.45,3.4c0,3.31,1.51,6,5.29,6,4.24,0,10.67-3.32,10.67-9.3,0-5.34-5.52-6.47-8.47-6.47-5.9,0-11.5,4.12-16.94,8.73.07,3,.07,5.91.15,8.5V61c0,3.55-.61,6.79-3.48,6.79-1.13,0-2-.89-2.87-2.26-1.06-1.78-3.48-3.08-6.13-4-3.1,2.35-5.29,3.16-7.49,3.16-1.89,0-2.72-1.06-2.72-2.43,0-2.59,2.8-5.74,3.93-5.74a3.59,3.59,0,0,1,1.06.32,2.55,2.55,0,0,0,.91.24c1,0,3.33-.89,12.7-7.2,0-2,.08-4,.08-6,0-2.75-.08-5.5-.15-8.17-3,1.37-5.52,2.34-8.55,2.34-6.5,0-7.18-4.45-7.18-6.39,0-.73.15-1,.45-1a4.82,4.82,0,0,1,1.29.49,15.14,15.14,0,0,0,5.29,1c2.87,0,4.69-.57,8.4-2.27-.61-8.09-.84-11.24-3.86-11.24-1.67,0-2.35-.24-2.35-.81,0-.81,1.74-3.32,4.32-3.32,1.74,0,6.2,1.86,6.2,6.07a20.65,20.65,0,0,1-.08,2.1,13.93,13.93,0,0,0,3.63.57c.38,0,.76-.08,1.21-.08h.46a2.29,2.29,0,0,1,2.34,2.59c0,3-2.65,5.17-7.87,8,0,4.44.15,9.14.23,13.67,5.75-3.56,11.95-6.8,18.38-6.8C511.06,40.71,515.6,44.92,515.6,50.42ZM473.48,60.61a36,36,0,0,0,4.15.41c2,0,2.5-.57,2.58-1.46.15-1.7.22-3.4.3-5.18C478.09,56.57,475.67,58.83,473.48,60.61Zm10.88-36.8c-.07.72-.07,1.53-.07,2.5v1.46c.38-.24.68-.49,1-.65a1.81,1.81,0,0,0,.83-1.37C486.1,25.18,485.73,24.61,484.36,23.81ZM522,29.06c0,2.43-1.66,3-5.06,3.72-1.67.33-4.24.73-6,1.78a5.51,5.51,0,0,1-1.89.81c-.16,0-.23-.08-.23-.24s.3-.73,1.21-1.7c.75-.81,2.26-3.07,2.26-4.69,0-1-.6-2.1-3.55-2.1A7.11,7.11,0,0,0,504,28.42a5.66,5.66,0,0,1-2.5,1.53c-.22,0-.3-.08-.3-.24,0-1.13,3.7-7.52,11-7.52C516.88,22.19,522,24.94,522,29.06Z" transform="translate(-0.88 -0.75)"/><path class="cls-1" d="M539.72,75.33c-.15,0-.22-.08-.22-.16,0-.24.83-1,3-2.26,7-4.37,20.79-17.72,20.79-34.55,0-7.44-2.8-12.53-6.35-12.53-1.59,0-3.4,1.05-5.37,3.15-1.51,1.62-3.33,3.24-5.6,3.24a6.92,6.92,0,0,1-6.73-6.64c0-2.26,1.29-4,1.82-4s.83.65,1.21,1.7a2.34,2.34,0,0,0,2.49,1.37,13,13,0,0,0,4.62-1.13c2.42-1,5.44-2.18,8.47-2.18,7.11,0,12.4,7.92,12.4,17.39a32,32,0,0,1-2.34,11.57C560.6,69.11,541.69,75.33,539.72,75.33Zm24-65.44c0,1.7-1.59,2.91-4.84,3.07-3.1.09-6.65,1.14-10.74,2.92a6.12,6.12,0,0,1-1.66.56c-.15,0-.23-.08-.23-.16,0-.24.38-.65,1.14-1.37,1.13-1.14,2.72-2.43,3.55-3.32.46-.49.61-.73.61-1s-.23-.49-.61-.65c-6.5-2.67-7.48-6.23-7.48-6.79,0-.33.15-.41.45-.41a8.24,8.24,0,0,1,2.72,1c1.82.89,5.67,1.14,8.55,1.14.75,0,1.43-.08,2.11-.08C561.43,4.88,563.77,7.55,563.77,9.89Z" transform="translate(-0.88 -0.75)"/><path class="cls-1" d="M583.25,64.49a9.16,9.16,0,0,1,8.85-9.38c4.84,0,8.78,4.21,8.78,9.38S596.94,74,592.1,74,583.25,69.67,583.25,64.49Zm15,0a6.25,6.25,0,1,0-12.47,0,6.59,6.59,0,0,0,6.27,6.72C595.51,71.21,598.3,68.13,598.3,64.49Z" transform="translate(-0.88 -0.75)"/></svg>