<svg xmlns="http://www.w3.org/2000/svg" viewBox="0 0 63.14 63.15"><defs><style>.cls-1{fill:#222222;fill-rule:evenodd;}</style></defs><title>アセット 47</title><g id="レイヤー_2" data-name="レイヤー 2"><g id="navi_memo"><path d="M53.46,59.15H4V9.69H34.16v-4H2a2,2,0,0,0-2,2V61.15a2,2,0,0,0,2,2H55.46a2,2,0,0,0,2-2V29h-4Z"/><path d="M60.92,2.44A7.47,7.47,0,0,0,55.67,0a6.8,6.8,0,0,0-4.88,1.81s0,0,0,0h0L25,27.57l0,.05a1.83,1.83,0,0,0-.13.16.91.91,0,0,0-.11.16,1.29,1.29,0,0,0-.09.16l-.09.2s0,0,0,.05L20.69,39.93a2,2,0,0,0,2.53,2.53L34.79,38.6l.06,0,.19-.09.17-.09.15-.1a1.22,1.22,0,0,0,.17-.15l0,0L61.31,12.39a.21.21,0,0,1,0-.06.1.1,0,0,0,0,0C63.88,9.44,63.68,5.39,60.92,2.44ZM28.19,30.07,53.55,4.7a2.82,2.82,0,0,1,2-.7A3.45,3.45,0,0,1,58,5.17c1.63,1.74,1.28,3.44.4,4.47L33.08,35,25.75,37.4Z"/></g></g></svg>