<svg xmlns="http://www.w3.org/2000/svg" viewBox="0 0 47.96 47.96"><defs><style>.cls-1{fill:#ffffff;}</style></defs><g id="レイヤー_2" data-name="レイヤー 2"><g id="レイヤー_1-2" data-name="レイヤー 1"><path class="cls-1" d="M40,42.63H8A2.67,2.67,0,0,1,5.33,40V8A2.67,2.67,0,0,1,8,5.33H21.32a2.67,2.67,0,0,0,0-5.33h-16A5.33,5.33,0,0,0,0,5.33v37.3A5.34,5.34,0,0,0,5.33,48h37.3A5.33,5.33,0,0,0,48,42.63v-16a2.67,2.67,0,1,0-5.33,0V40A2.66,2.66,0,0,1,40,42.63Zm-10.66-40A2.68,2.68,0,0,0,32,5.33h6.9L14.55,29.66a2.66,2.66,0,0,0,3.76,3.76L42.63,9.09V16A2.67,2.67,0,0,0,48,16V2.66A2.67,2.67,0,0,0,45.3,0H32A2.67,2.67,0,0,0,29.31,2.66Z"/></g></g></svg>
